<?xml version="1.0" encoding="utf-8"?>
<!-- Generator: Adobe Illustrator 22.0.1, SVG Export Plug-In . SVG Version: 6.00 Build 0)  -->
<svg version="1.1" id="圖層_1" xmlns="http://www.w3.org/2000/svg" xmlns:xlink="http://www.w3.org/1999/xlink" x="0px" y="0px"
	 viewBox="0 0 32 32" style="enable-background:new 0 0 32 32;" xml:space="preserve">
<style type="text/css">
	.st0{fill:#3B5998;}
	.st1{fill:#FFFFFF;}
</style>
<path class="st0" d="M29,32H3c-1.6,0-3-1.4-3-3V3c0-1.6,1.4-3,3-3h26c1.6,0,3,1.4,3,3v26C32,30.6,30.6,32,29,32z"/>
<g>
	<path class="st1" d="M27.4,19.3l0.6-4.8h-5v-3.1c0-1.4,0.4-2.3,2.4-2.3h2.6V4.8c-0.4-0.1-2-0.2-3.7-0.2c-3.7,0-6.2,2.3-6.2,6.4v3.6
		h-4.3v4.8h4.4V32h5V19.3H27.4z"/>
	<path class="st1" d="M29.2,32H30v-0.1C29.7,32,29.5,32,29.2,32z"/>
</g>
</svg>
