<?xml version="1.0" encoding="utf-8"?>
<!-- Generator: Adobe Illustrator 22.0.1, SVG Export Plug-In . SVG Version: 6.00 Build 0)  -->
<svg version="1.1" id="圖層_2_1_" xmlns="http://www.w3.org/2000/svg" xmlns:xlink="http://www.w3.org/1999/xlink" x="0px"
	 y="0px" viewBox="0 0 32 32" style="enable-background:new 0 0 32 32;" xml:space="preserve">
<style type="text/css">
	.st0{fill:#174E3C;}
	.st1{fill:#FFFFFF;}
</style>
<path class="st0" d="M29,32H3c-1.6,0-3-1.4-3-3V3c0-1.6,1.4-3,3-3h26c1.6,0,3,1.4,3,3v26C32,30.6,30.6,32,29,32z"/>
<g>
	<rect x="4.7" y="25.4" class="st1" width="9.4" height="2.1"/>
	<g>
		<path class="st1" d="M27.3,27.5l-0.5-2.2c-0.8-3.7-5.4-5.1-6.9-5.8c-1.5-0.7-1.3-2.8-1.3-2.8c0.8-1.3,1.4-2.4,1.8-3.3
			c0.5-0.8,0.8-1.7,0.8-2.8c0-0.1,0-0.2,0-0.2c0-3.2-2.6-5.9-5.9-5.9s-5.9,2.6-5.9,5.9c0,0.3,0,0.6,0.1,0.9h0c0,0,0,0.1,0,0.1
			c0,0.1,0,0.2,0.1,0.3c0,0,0,0,0,0.1c0,0.2,0.1,0.3,0.1,0.5c0.7,2,2.2,3.9,2.2,3.9h1.8c1.3,0.1,1.6,1.8,1.6,1.8v9.4L27.3,27.5
			L27.3,27.5z"/>
		<rect x="4.7" y="21.7" class="st1" width="9.4" height="2.1"/>
		<rect x="4.7" y="18.1" class="st1" width="9.4" height="2.1"/>
	</g>
</g>
</svg>
